<?xml version="1.0" standalone="no"?>
<!DOCTYPE svg PUBLIC "-//W3C//DTD SVG 20010904//EN"
 "http://www.w3.org/TR/2001/REC-SVG-20010904/DTD/svg10.dtd">
<svg version="1.0" xmlns="http://www.w3.org/2000/svg"
 width="345.000000pt" height="345.000000pt" viewBox="0 0 345.000000 345.000000"
 preserveAspectRatio="xMidYMid meet">
<metadata>
Created by potrace 1.11, written by Peter Selinger 2001-2013
</metadata>
<g transform="translate(0.000000,345.000000) scale(0.100000,-0.100000)"
fill="#000000" stroke="none">
<path d="M1368 2961 l4 -31 -171 0 c-200 0 -233 -8 -256 -64 -13 -30 -15 -163
-15 -893 0 -840 0 -859 20 -891 11 -18 32 -37 46 -42 14 -6 106 -10 204 -10
l180 0 32 29 33 29 3 301 3 301 178 0 c270 0 273 2 279 213 6 186 -2 243 -38
279 l-28 28 -196 0 -196 0 0 95 0 95 173 1 c268 0 279 8 285 209 3 72 6 130 9
130 2 0 19 -6 38 -14 l35 -15 2 -811 3 -812 31 -28 32 -28 238 -7 c325 -11
573 4 668 38 129 48 213 122 274 244 l31 61 67 -66 c36 -37 63 -58 59 -47 -4
11 -34 98 -66 194 -32 96 -60 175 -62 177 -6 6 -130 -146 -155 -189 -29 -50
-28 -58 8 -50 37 7 37 -1 2 -58 -60 -94 -164 -160 -279 -179 -32 -6 -212 -10
-401 -10 l-342 0 2 838 3 837 385 -1 c378 0 386 -1 444 -24 80 -31 146 -97
176 -176 41 -108 37 -301 -7 -389 -22 -43 -72 -94 -116 -116 -45 -24 -64 -57
-48 -87 6 -11 36 -32 66 -46 69 -31 102 -57 132 -101 28 -42 56 -52 88 -31 49
32 26 96 -62 172 l-47 42 32 36 c70 80 102 182 102 327 0 120 -12 187 -49 264
-50 108 -122 173 -241 216 -65 24 -67 24 -487 24 l-423 0 -26 -27 c-21 -21
-28 -39 -33 -89 l-6 -64 -64 113 c-36 61 -67 112 -70 112 -7 -1 -170 -284
-166 -288 2 -2 25 10 51 27 27 16 52 27 56 25 9 -6 11 -185 2 -208 -5 -14 -33
-16 -210 -16 -263 0 -244 16 -244 -200 0 -147 2 -162 20 -180 11 -11 30 -20
43 -21 12 0 104 0 204 1 l182 1 6 -23 c3 -13 4 -81 3 -153 l-3 -130 -208 -5
c-205 -5 -209 -5 -228 -29 -18 -22 -19 -43 -19 -327 l0 -304 -150 0 -150 0 0
840 0 840 166 0 165 0 10 -30 c6 -16 15 -30 20 -30 14 0 83 36 152 78 l59 36
-24 18 c-36 27 -160 87 -194 94 -30 6 -31 5 -26 -25z"/>
<path d="M405 2961 c-52 -24 -121 -99 -134 -147 -35 -125 15 -249 124 -307 56
-30 164 -30 220 0 90 48 138 128 138 229 -1 103 -59 188 -156 229 -50 21 -143
19 -192 -4z"/>
<path d="M2423 2660 l-23 -21 0 -653 c0 -653 0 -653 21 -681 l22 -27 146 4
c169 4 209 18 261 90 56 78 82 222 61 343 -28 159 -99 220 -271 233 l-85 7 -3
66 -3 66 73 7 c92 8 153 38 195 94 113 150 64 426 -84 473 -21 6 -94 14 -163
16 -117 4 -126 3 -147 -17z m262 -61 c87 -24 136 -123 120 -244 -16 -128 -83
-187 -212 -186 -41 0 -80 -5 -96 -14 l-27 -14 0 228 c0 125 3 231 7 234 10 11
165 8 208 -4z m-107 -719 c152 -1 200 -22 242 -106 21 -42 25 -63 25 -144 0
-154 -45 -245 -133 -270 -20 -5 -80 -10 -133 -10 -79 0 -98 3 -103 16 -3 9 -6
140 -6 292 1 251 2 274 16 250 14 -27 18 -28 92 -28z"/>
<path d="M311 2457 c-13 -6 -34 -25 -45 -40 -21 -28 -21 -34 -21 -660 0 -688
0 -683 56 -712 41 -22 368 -21 409 0 54 28 55 31 58 423 2 199 5 362 7 362 3
0 23 -7 45 -16 23 -9 43 -14 46 -12 5 6 -147 268 -156 268 -7 -1 -180 -304
-175 -308 1 -2 25 11 53 27 27 17 54 31 61 31 8 0 11 -88 9 -337 l-3 -338
-147 -3 c-115 -2 -148 0 -148 10 1 7 -1 277 -3 600 -2 324 0 593 3 598 4 7 59
10 151 8 l144 -3 5 -70 c5 -64 7 -70 31 -79 57 -20 84 22 76 119 -5 73 -26
117 -62 133 -36 17 -361 16 -394 -1z"/>
<path d="M3443 1240 c0 -30 2 -43 4 -27 2 15 2 39 0 55 -2 15 -4 2 -4 -28z"/>
<path d="M3198 1038 l-3 -33 -1549 -3 c-1125 -1 -1553 -5 -1563 -13 -17 -15
-17 -73 1 -88 10 -8 416 -11 1560 -11 942 0 1546 -3 1546 -9 0 -5 -9 -30 -20
-55 -10 -25 -16 -46 -12 -46 4 0 59 31 122 68 110 65 115 69 118 104 3 32 0
36 -24 42 -15 4 -40 16 -55 27 -22 15 -100 49 -115 49 -1 0 -4 -15 -6 -32z"/>
</g>
</svg>
