<svg xmlns="http://www.w3.org/2000/svg" viewBox="0 0 737.26 256.63"><defs><style>.cls-1{fill:#fefefe;}.cls-2{fill:#465660;stroke:#465660;}.cls-2,.cls-3,.cls-4,.cls-5,.cls-6,.cls-7{stroke-miterlimit:10;stroke-width:8px;}.cls-3,.cls-8{fill:#458f2e;}.cls-3,.cls-7{stroke:#458f2e;}.cls-4{fill:#d01a0f;}.cls-4,.cls-6{stroke:#d01a0f;}.cls-5{fill:#d0190e;stroke:#d0190e;}.cls-6{fill:#d11b10;}.cls-7{fill:#458f2d;}.cls-8{font-size:250px;font-family:Herculanum, Herculanum;}</style></defs><title>logo_IFB</title><g id="Layer_0_Image" data-name="Layer 0 Image"><path class="cls-1" d="M342.56,213.61c-3.86,2.31-6.46-5.48-11.08-1.05-3,2.87-7.69,1.37-11.63,1.37q-145.25.08-290.5,0a36.18,36.18,0,0,0-7.52.4,20.36,20.36,0,0,0,5.77.41q146.5,0,293,.07c4.13,0,8.71-1.44,12.22,2.51.85,1,2.17-.2,3.19-.7,2.22-1.09,4.29-2.64,7-2.3C343,217.72,342.7,213.53,342.56,213.61Z" transform="translate(-13.27 13.48)"/><path class="cls-2" d="M343,214.38l-13.32,7.83,2.18-5.54c-2.11-1.12-4.12-.61-6-.61q-151.49,0-303-.11c-1.94,0-5.67,1.57-5.59-1.67.08-2.92,3.78-1.49,5.79-1.49q151.24-.12,302.47-.07h5.9c.78-2.22-1.34-3.51-1.07-5.6,4.61,1.39,8,5.22,12.63,6.25Z" transform="translate(-13.27 13.48)"/><path class="cls-3" d="M185.18,29.88l6.6-11.45,6.34,11c-5-2.26-5,.2-4.91,3.21.14,7.33.1,14.66,0,22-.06,6.62-2.79,9.45-9.42,9.51-10.66.11-21.33.14-32,0-3.18-.06-4.35.7-4.21,4.09.28,6.32.29,12.67,0,19-.16,3.48,1.19,4.1,4.29,4,10.66-.16,21.33-.09,32-.05,6.82,0,9.29,2.49,9.34,9.35.06,8.83.08,17.66,0,26.49-.07,6.26-2.6,8.79-8.88,8.84-10.66.09-21.33.18-32-.06-3.64-.08-4.81.75-4.76,4.62.23,17.33.11,34.66.1,52,0,7-2.56,9.7-9.54,9.75q-12.5.1-25,0c-7-.06-9.62-2.77-9.62-9.76q0-81.73,0-163.45c0-7.32,2.52-9.75,10-9.77,11.81,0,23.62,0,35.39,0,.57-1.84-.73-3-1.14-5.13,4.82,1.3,8.29,4.23,12.58,6.58-4.29,2.63-7.94,5.08-12.12,6.72-1.1-2.11,1.59-3.06.77-5.15-12.29,0-24.74,0-37.19,0-3.43,0-5.16,1.93-5.25,5.34,0,1,0,2,0,3q0,80,0,160c0,7.48,1.17,8.66,8.63,8.66s15,0,22.49,0c5.51,0,7-1.61,7-7.17,0-17.83.19-35.66-.12-53.48-.08-4.83,1.58-5.9,6-5.8,11,.25,22,0,33,.13,4.64.07,6.74-1.68,6.65-6.45-.16-8.66-.11-17.33,0-26,0-4.44-1.95-6.3-6.37-6.25-11.33.12-22.66-.1-34,.11-3.8.07-5.38-.8-5.21-5,.32-8,.25-16,0-24-.09-3.36,1.07-4.25,4.29-4.2,11,.17,22,.08,33,.06,7.16,0,8.22-1,8.23-8s-.14-14,.06-21C190.31,28.81,189.49,27.42,185.18,29.88Z" transform="translate(-13.27 13.48)"/><path class="cls-4" d="M327.8,164.34l-5.26.94c2.4-4.37,6.11-7.09,9.39-11.42l5.17,15.4c-4.92-5.37-6.15-3.35-7.62,1-6.36,19.05-22.32,30.46-44.64,31.52s-45,.35-67.43,0c-4.67-.06-7.35-2.78-7.82-7.4a40,40,0,0,1,0-4q0-80.23,0-160.45c0-8.48,2.22-10.81,10.48-10.8,22.16,0,44.32-.21,66.47.24C310.88,20,326,35,327.56,59.44c.37,5.82.65,11.66-.39,17.4-2,11.16-6.79,20.75-17.11,27.11,6.37,3.21,12.18,6.5,15.94,12.3.92,1.43,3,3.36,1,4.72s-2.52-1.47-3.38-2.7c-4.06-5.86-9.82-9.32-16.3-11.84-1.34-.52-3.32-.64-3.29-2.5,0-1.53,1.93-1.64,3.06-2.21,11.14-5.57,15.72-15.54,17.2-27,1.42-11,.76-22-4-32.27-6.46-13.8-18.55-19.45-32.76-19.87-23-.69-46-.32-69-.31-4.88,0-6,1.59-6,7.58q0,71.23,0,142.46c0,6.83,0,13.66,0,20.49,0,3.79,1.52,6,5.55,6.06,23.64.14,47.3,1.41,70.9-.45C308.45,196.86,324.43,182.78,327.8,164.34Z" transform="translate(-13.27 13.48)"/><path class="cls-5" d="M57,56.08c-11.66,0-20.62-9.22-20.57-21.1a20.65,20.65,0,0,1,20.84-20.9A20.89,20.89,0,0,1,78,35.25,20.76,20.76,0,0,1,57,56.08Z" transform="translate(-13.27 13.48)"/><path class="cls-6" d="M251,100.32c.52-10.38-.23-30.69-.4-51,0-4,1.18-5.31,5.12-5,6.61.54,13.32-.76,19.89,1,4.86,1.29,9.25,3.67,11.39,8.24,5.07,10.87,5.24,22-.82,32.55-4,7-11.06,9.08-18.83,9.14-10.7.08-9.59-1.56-9.62,9.5,0,13.48,0,13.48,13.3,13.48,14.07,0,20.87,6,22.82,20.24a50.73,50.73,0,0,1-2.22,24.6c-2.94,8.08-8.6,13-17.39,13.47-6.14.34-12.32.11-18.46.46-3.7.21-4.87-1-4.84-4.78C251.1,151.56,251,130.9,251,100.32Z" transform="translate(-13.27 13.48)"/><path class="cls-7" d="M85.48,122,79.76,120c-1.06,1.76-.56,3.44-.56,5q-.06,33.25,0,66.49c0,8.65-2.17,10.75-11,10.76-8,0-16,.06-24,0C37.88,202.14,35,199.27,35,193q0-59.24,0-118.48c0-6.47,2.67-9.2,9-9.25q13.25-.12,26.5,0c5.85.07,8.51,2.8,8.62,8.56.05,2.83,0,5.67,0,8.5,0,1.13.16,2.72-1.45,2.64-1.35-.07-1.55-1.5-1.54-2.73,0-2.67-.08-5.34,0-8,.16-4.28-2-6-6.09-6-8.33,0-16.66,0-25,0-5.72,0-7.07,1.38-7.08,7.07,0,14,0,28,0,42q0,37,0,74c0,6.54,1.35,7.91,7.84,7.93,7.83,0,15.66,0,23.5,0,5.36,0,6.79-1.48,6.8-6.83,0-22.5,0-45,.07-67.49,0-3.71-.28-6.09-6.25-2.5l7.79-13.48Z" transform="translate(-13.27 13.48)"/><path class="cls-1" d="M254.54,98.46c0,5.31,0,10.62,0,15.93,0,4.5,2.18,6.79,6.68,6.82,3.83,0,7.66,0,11.5,0,9.35,0,15.44,4.72,17.49,13.83a49.68,49.68,0,0,1-1,25.67c-2.35,7.74-7.49,12.48-15.89,12.83-5.32.22-10.65.15-16,.32-2.22.07-3.34-.51-3.33-3q.09-36.19,0-72.39Z" transform="translate(-13.27 13.48)"/><path class="cls-1" d="M253.72,94.76q0-22.44,0-44.88c0-1.56.33-2.58,2.18-2.49,6.13.3,12.33-.73,18.41.76,6.82,1.66,11,5.91,12.29,12.85a39.65,39.65,0,0,1,.17,14.87c-2,10.75-8.32,16.06-19.25,16.41C263.23,92.42,258.39,90.45,253.72,94.76Z" transform="translate(-13.27 13.48)"/></g><g id="AMP_DB" data-name="AMP DB"><text class="cls-8" transform="translate(336 203.13) scale(0.42 1)">AMP DB</text></g></svg>